<svg xmlns="http://www.w3.org/2000/svg" viewBox="0 0 900 360" width="900" height="360" font-family="'Noto Sans CJK JP','Noto Sans JP','Hiragino Sans','Yu Gothic',Meiryo,sans-serif" font-size="14" role="img" aria-label="図: PI制御ノードが目標速度と現在速度の差からペダルを計算し、疑似プラントとのあいだでループを閉じる">
<title>図: PI制御ノードが目標速度と現在速度の差からペダルを計算し、疑似プラントとのあいだでループを閉じる</title>
<defs><marker id="a" viewBox="0 0 10 10" refX="9" refY="5" markerWidth="8" markerHeight="8" orient="auto"><path d="M0,0 L10,5 L0,10 z" fill="#333333"/></marker></defs>
<rect x="0" y="0" width="900" height="360" fill="#ffffff"/>
<g fill="#1a1a1a">
<path d="M200,99 L350,99" fill="none" stroke="#333333" stroke-width="1.6" marker-end="url(#a)"/>
<path d="M530,99 L680,99" fill="none" stroke="#333333" stroke-width="1.6" marker-end="url(#a)"/>
<path d="M720,138 L720,195 L460,195 L460,138" fill="none" stroke="#333333" stroke-width="1.6" marker-end="url(#a)"/>
<path d="M800,138 L800,260" fill="none" stroke="#333333" stroke-width="1.6" marker-end="url(#a)"/>
<path d="M680,299 L530,299" fill="none" stroke="#333333" stroke-width="1.6" marker-end="url(#a)"/>
<rect x="20" y="60" width="180" height="78" rx="8" fill="#eaf2ff" stroke="#3b6fb6" stroke-width="1.5"/>
<rect x="350" y="60" width="180" height="78" rx="8" fill="#fff6e5" stroke="#c98a14" stroke-width="1.5"/>
<rect x="680" y="60" width="180" height="78" rx="8" fill="#eef1f5" stroke="#6b7a90" stroke-width="1.5"/>
<rect x="680" y="260" width="180" height="78" rx="8" fill="#eef1f5" stroke="#6b7a90" stroke-width="1.5"/>
<rect x="350" y="260" width="180" height="78" rx="8" fill="#eaf6e8" stroke="#4a8f45" stroke-width="1.5"/>
<text x="110.0" y="86.0" text-anchor="middle">ros2 topic pub</text>
<text x="110.0" y="104.0" text-anchor="middle">目標速度を送る</text>
<text x="110.0" y="122.0" text-anchor="middle">（5-3で自動に）</text>
<text x="440.0" y="86.0" text-anchor="middle">pi_controller</text>
<text x="440.0" y="104.0" text-anchor="middle">PIController</text>
<text x="440.0" y="122.0" text-anchor="middle">（この手順書）</text>
<text x="770.0" y="86.0" text-anchor="middle">vehicle_plant</text>
<text x="770.0" y="104.0" text-anchor="middle">VehicleModel</text>
<text x="770.0" y="122.0" text-anchor="middle">（5-1）</text>
<text x="770.0" y="286.0" text-anchor="middle">gz_display</text>
<text x="770.0" y="304.0" text-anchor="middle">速度 × 0.025</text>
<text x="770.0" y="322.0" text-anchor="middle">（5-1）</text>
<text x="440.0" y="286.0" text-anchor="middle">5-0のデモ</text>
<text x="440.0" y="304.0" text-anchor="middle">parameter_bridge</text>
<text x="440.0" y="322.0" text-anchor="middle">＋ Gazebo</text>
<text x="275" y="76" text-anchor="middle" font-size="12">/target_velocity</text>
<text x="275" y="91" text-anchor="middle" font-size="12">Float64</text>
<text x="605" y="76" text-anchor="middle" font-size="12">/plant/pedal</text>
<text x="605" y="91" text-anchor="middle" font-size="12">Float64</text>
<text x="590" y="189" text-anchor="middle" font-size="12">/plant/velocity（現在速度）</text>
<text x="792" y="232" text-anchor="end" font-size="12">/plant/velocity</text>
<text x="605" y="276" text-anchor="middle" font-size="12">cmd_vel</text>
<text x="605" y="291" text-anchor="middle" font-size="12">Twist</text>
</g>
</svg>
